<?xml version="1.0" standalone="no"?>
<!DOCTYPE svg PUBLIC "-//W3C//DTD SVG 20010904//EN"
 "http://www.w3.org/TR/2001/REC-SVG-20010904/DTD/svg10.dtd">
<svg version="1.0" xmlns="http://www.w3.org/2000/svg"
 width="800.000000pt" height="800.000000pt" viewBox="0 0 800.000000 800.000000"
 preserveAspectRatio="xMidYMid meet">

<g transform="translate(0.000000,800.000000) scale(0.100000,-0.100000)"
fill="#000000" stroke="none">
<path d="M3670 7824 c-183 -21 -244 -29 -366 -49 -1019 -171 -1949 -761 -2536
-1610 -112 -162 -179 -278 -283 -490 -179 -364 -288 -713 -352 -1130 -26 -169
-27 -201 -28 -515 0 -340 2 -368 46 -640 122 -750 501 -1483 1049 -2030 320
-320 626 -544 1006 -733 750 -375 1570 -500 2407 -366 270 43 631 147 887 256
480 205 864 466 1240 843 480 479 824 1087 990 1749 38 153 44 184 76 391 32
206 44 618 24 831 -34 373 -114 715 -255 1084 -37 99 -203 433 -270 545 -368
613 -929 1131 -1571 1453 -403 202 -770 315 -1259 388 -114 17 -198 21 -455
24 -173 2 -331 1 -350 -1z m43 -61 c-7 -2 -19 -2 -25 0 -7 3 -2 5 12 5 14 0
19 -2 13 -5z m540 0 c-7 -2 -21 -2 -30 0 -10 3 -4 5 12 5 17 0 24 -2 18 -5z
m-3073 -1187 c0 -2 -8 -10 -17 -17 -16 -13 -17 -12 -4 4 13 16 21 21 21 13z
m5601 -13 c13 -16 12 -17 -3 -4 -10 7 -18 15 -18 17 0 8 8 3 21 -13z m-2886
-317 c505 -78 916 -304 1264 -695 205 -231 364 -533 446 -845 74 -286 84 -712
24 -1021 -40 -210 -138 -459 -261 -663 -261 -436 -710 -783 -1193 -922 -234
-67 -371 -80 -862 -80 l-363 0 0 1820 0 1820 -180 0 -180 0 0 306 0 306 598
-5 c496 -3 616 -7 707 -21z m2675 -1506 c-5 -10 -10 -21 -10 -24 0 -3 40 -6
89 -6 50 0 92 -4 95 -9 3 -5 -143 -312 -324 -682 -182 -370 -330 -674 -330
-676 0 -1 26 -3 57 -3 72 0 63 -11 -13 -14 -42 -2 -61 -8 -69 -20 -5 -10 -16
-25 -23 -34 -11 -15 -12 -12 -7 16 l7 32 -56 0 c-31 0 -56 5 -56 10 0 6 29 10
66 10 l65 0 231 468 c126 257 257 523 290 592 33 69 78 160 99 203 l39 77 -93
0 -93 0 -172 -347 c-94 -192 -230 -467 -301 -613 -72 -146 -130 -255 -131
-244 0 23 63 157 369 778 110 225 201 413 201 418 0 4 -16 8 -35 8 -24 0 -35
5 -35 15 0 11 12 15 50 15 45 0 51 3 65 30 9 17 20 28 25 25 7 -4 6 -13 0 -25z
m350 -108 l0 -68 88 -83 c48 -45 183 -170 300 -277 116 -108 212 -203 212
-212 0 -11 -18 1 -52 34 -64 61 -334 309 -455 418 l-88 79 -3 -114 -3 -114 69
-65 c38 -36 122 -112 186 -169 64 -57 115 -108 113 -115 -2 -6 -50 -53 -108
-104 -57 -52 -139 -126 -182 -166 l-78 -71 3 -115 3 -115 76 73 c41 39 79 72
83 72 8 0 215 191 374 344 38 37 62 54 62 45 0 -15 -254 -256 -504 -479 -89
-79 -96 -88 -96 -122 0 -28 -4 -38 -16 -38 -8 0 -12 5 -9 10 4 6 4 18 1 26 -5
13 -14 10 -46 -16 -61 -49 -63 -25 -2 28 l52 47 0 126 0 126 78 74 c44 41 125
114 180 164 56 49 102 92 102 95 0 3 -42 42 -92 88 -51 45 -132 117 -180 160
l-86 77 -1 136 -1 135 -35 34 c-45 44 -47 72 -2 34 l32 -27 3 56 c4 80 22 71
22 -11z m-5050 -9 l0 -57 29 28 c16 15 31 23 35 18 3 -5 -10 -24 -29 -42 l-35
-34 0 -136 0 -135 -175 -163 c-96 -90 -175 -168 -174 -175 0 -7 79 -84 175
-172 l174 -160 0 -131 0 -132 50 -38 c27 -20 47 -41 44 -46 -6 -9 -15 -5 -61
30 l-33 24 0 -26 c0 -14 -4 -26 -10 -26 -5 0 -10 15 -10 34 0 31 -23 55 -325
335 -179 166 -325 308 -324 314 0 7 144 145 320 306 l319 295 0 66 c0 37 3 70
7 73 16 17 23 3 23 -50z m-1703 -360 c-3 -10 -5 -2 -5 17 0 19 2 27 5 18 2
-10 2 -26 0 -35z m7610 0 c-3 -10 -5 -2 -5 17 0 19 2 27 5 18 2 -10 2 -26 0
-35z m-7610 -510 c-3 -10 -5 -4 -5 12 0 17 2 24 5 18 2 -7 2 -21 0 -30z m7610
0 c-3 -10 -5 -4 -5 12 0 17 2 24 5 18 2 -7 2 -21 0 -30z m-4190 -3469 c-3 -3
-12 -4 -19 -1 -8 3 -5 6 6 6 11 1 17 -2 13 -5z m790 0 c-3 -3 -12 -4 -19 -1
-8 3 -5 6 6 6 11 1 17 -2 13 -5z m-649 -11 c-10 -2 -28 -2 -40 0 -13 2 -5 4
17 4 22 1 32 -1 23 -4z m530 0 c-10 -2 -28 -2 -40 0 -13 2 -5 4 17 4 22 1 32
-1 23 -4z"/>
<path d="M2660 5966 l0 -236 320 0 320 0 0 -35 0 -35 -140 0 -140 0 0 -1785 0
-1785 351 0 c433 0 544 11 782 76 104 29 159 50 292 111 344 159 642 425 849
758 68 110 168 321 205 431 129 393 132 945 6 1328 -146 447 -447 838 -836
1089 -220 141 -468 238 -738 288 -108 21 -155 22 -693 26 l-578 5 0 -236z
m1065 -286 c357 -32 666 -177 910 -425 127 -129 204 -233 276 -369 128 -243
171 -427 172 -736 0 -186 -8 -262 -44 -421 -107 -476 -499 -896 -983 -1053
-176 -58 -259 -68 -573 -73 l-293 -5 0 35 0 34 283 6 c352 6 455 23 667 109
428 173 749 559 847 1018 26 123 26 557 0 680 -82 386 -321 728 -650 929 -170
104 -390 180 -567 196 -36 3 -89 8 -117 11 l-53 5 0 -1310 0 -1311 -35 0 -35
0 0 1345 0 1345 48 0 c26 -1 92 -5 147 -10z"/>
<path d="M1535 4220 c-165 -153 -300 -284 -300 -290 0 -13 595 -571 604 -566
3 2 5 54 3 115 l-3 111 -177 166 c-97 92 -177 170 -177 174 0 4 79 81 175 170
l175 163 5 114 c3 63 3 116 0 118 -3 2 -140 -122 -305 -275z"/>
</g>
</svg>
